<!--?xml version="1.0" encoding="utf-8"?-->
<!-- Generator: Adobe Illustrator 18.1.1, SVG Export Plug-In . SVG Version: 6.00 Build 0)  -->

<svg version="1.1" id="_x32_" xmlns="http://www.w3.org/2000/svg" xmlns:xlink="http://www.w3.org/1999/xlink" x="0px" y="0px" viewBox="0 0 512 512" style="width: 128px; height: 128px; opacity: 1;" xml:space="preserve">
<style type="text/css">
	.st0{fill:#4B4B4B;}
</style>
<g>
	<path class="st0" d="M478.047,400.316c-19.356-18.424-81.443-56.049-97.112-61.134c-15.659-5.096-36.341,8.668-43.342,27.382
		c-7.012,18.715-16.85,16.022-16.85,16.022s-37.242-17.472-101.504-93.726s-75.167-115.92-75.167-115.92s-0.984-10.16,18.662-13.898
		c19.615-3.729,36.693-21.769,34.321-38.071c-2.34-16.301-28.904-83.876-43.776-106.06C138.377-7.262,105.153,0.61,97.593,5.146
		c-7.571,4.536-86.756,45.692-71.842,135.492c14.934,89.801,57.26,164.294,105.904,222.022
		c48.644,57.726,114.884,112.087,200.863,142.018c85.958,29.93,139.956-41.136,145.704-47.826
		C483.971,450.172,497.361,418.761,478.047,400.316z" style="fill: rgb(102, 106, 246);"></path>
</g>
</svg>
