<!--?xml version="1.0" encoding="utf-8"?-->
<!-- Generator: Adobe Illustrator 18.1.1, SVG Export Plug-In . SVG Version: 6.00 Build 0)  -->

<svg version="1.1" id="_x32_" xmlns="http://www.w3.org/2000/svg" xmlns:xlink="http://www.w3.org/1999/xlink" x="0px" y="0px" viewBox="0 0 512 512" style="width: 128px; height: 128px; opacity: 1;" xml:space="preserve">
<style type="text/css">
	.st0{fill:#4B4B4B;}
</style>
<g>
	<path class="st0" d="M400.127,470.88c2.365-6.377,2.877-11.332,2.877-11.332l-12.244,7.462c1.626-5.286,2.108-8.99,2.108-8.99
		l-11.731,6.882c-2.484-0.7-5-1.386-7.545-2.048c4.367-8.079,6.31-14.751,6.31-14.751l-12.229,7.093l16.896-113.797
		c0.242-1.649-0.331-3.283-1.536-4.428l-3.404-3.185c-1.22-1.136-1.792-2.794-1.551-4.427c0.241-1.642,1.28-3.057,2.771-3.78
		l4.171-2.056c1.491-0.746,2.53-2.153,2.771-3.787l5.12-34.547c0.256-1.634-0.332-3.283-1.536-4.427l-3.419-3.185
		c-1.205-1.138-1.762-2.786-1.536-4.413c0.256-1.648,1.28-3.064,2.771-3.794l4.186-2.063c1.476-0.738,2.515-2.146,2.756-3.795
		l4.804-32.31c0.24-1.649-0.332-3.306-1.536-4.428l-3.419-3.192c-1.204-1.138-1.792-2.794-1.536-4.42
		c0.24-1.656,1.28-3.05,2.756-3.788l4.202-2.063c1.476-0.73,2.5-2.153,2.756-3.794l5.421-36.55c0.18-1.228-0.106-2.5-0.798-3.546
		l-24.291-36.369c-0.798-1.183-2.048-1.973-3.449-2.184c-1.416-0.219-2.846,0.18-3.945,1.092l-33.809,27.739
		c-0.964,0.798-1.611,1.92-1.792,3.17l-5.422,36.534c-0.241,1.642,0.332,3.306,1.536,4.428l3.404,3.192
		c1.22,1.13,1.777,2.786,1.536,4.427c-0.241,1.635-1.265,3.043-2.756,3.795l-4.187,2.048c-1.476,0.723-2.514,2.146-2.756,3.795
		l-4.804,32.325c-0.241,1.642,0.332,3.298,1.536,4.427l3.418,3.185c1.205,1.13,1.777,2.787,1.537,4.428
		c-0.242,1.642-1.281,3.042-2.771,3.773l-4.187,2.071c-1.476,0.722-2.515,2.146-2.756,3.788l-5.136,34.531
		c-0.241,1.648,0.346,3.29,1.551,4.435l3.418,3.177c1.205,1.13,1.777,2.786,1.536,4.428c-0.241,1.634-1.28,3.057-2.771,3.78
		l-4.186,2.079c-1.491,0.722-2.515,2.138-2.756,3.78l-17.574,118.345c-1.175-0.112-2.349-0.226-3.524-0.331
		c-4.367-7.146-8.524-11.656-8.524-11.656l-0.226,10.94c-10.406-0.76-20.677-1.174-30.631-1.174c-1.928,0-3.886,0.03-5.843,0.06
		l-10.075-161.83c-0.136-2.304-1.401-4.39-3.374-5.579l-5.572-3.351c-1.973-1.19-3.238-3.291-3.373-5.587
		c-0.15-2.305,0.843-4.525,2.65-5.956l5.105-4.006c1.822-1.438,2.816-3.66,2.666-5.964l-3.012-48.507
		c-0.15-2.296-1.416-4.39-3.388-5.572l-5.557-3.358c-1.988-1.198-3.238-3.276-3.388-5.58c-0.136-2.304,0.858-4.525,2.666-5.956
		l5.105-4.014c1.807-1.438,2.801-3.659,2.665-5.963l-2.831-45.405c-0.135-2.312-1.4-4.397-3.373-5.579l-5.572-3.351
		c-1.973-1.204-3.238-3.283-3.373-5.579c-0.151-2.312,0.843-4.526,2.65-5.964l5.105-4.02c1.822-1.416,2.816-3.652,2.666-5.956
		l-3.193-51.323c-0.105-1.746-0.858-3.388-2.108-4.6L179.641,1.987c-1.431-1.386-3.358-2.1-5.346-1.972
		c-1.973,0.12-3.81,1.068-5.045,2.62l-37.996,47.573c-1.098,1.356-1.641,3.08-1.536,4.827l3.193,51.323
		c0.15,2.304,1.416,4.397,3.388,5.579l5.557,3.358c1.988,1.197,3.238,3.275,3.389,5.58c0.136,2.304-0.844,4.525-2.666,5.963
		l-5.105,4.013c-1.807,1.416-2.801,3.645-2.665,5.949l2.831,45.412c0.15,2.305,1.4,4.383,3.388,5.58l5.557,3.35
		c1.973,1.197,3.238,3.276,3.389,5.588c0.135,2.296-0.859,4.518-2.666,5.948l-5.105,4.029c-1.823,1.416-2.817,3.652-2.666,5.948
		l3.012,48.507c0.15,2.304,1.416,4.382,3.388,5.587l5.572,3.343c1.972,1.19,3.223,3.268,3.373,5.58
		c0.136,2.297-0.844,4.533-2.666,5.956l-5.105,4.021c-1.808,1.43-2.801,3.644-2.666,5.956l9.984,160.248
		c-5.798-3.562-10.226-5.398-10.226-5.398l5.994,13.494c-8.704,2.018-17.153,4.239-25.15,6.656
		c-5.24-10.376-11.671-17.386-11.671-17.386l-0.452,21.309c-0.663,0.226-1.356,0.452-2.018,0.685
		c-6.43-4.104-11.521-6.204-11.521-6.204l4.006,8.99C75.55,484.78,56.319,497.995,54.24,512h403.52
		C455.486,496.617,432.505,482.19,400.127,470.88z" style="fill: rgb(102, 106, 246);"></path>
</g>
</svg>
